<?xml version="1.0" standalone="no"?>
<!DOCTYPE svg PUBLIC "-//W3C//DTD SVG 20010904//EN"
 "http://www.w3.org/TR/2001/REC-SVG-20010904/DTD/svg10.dtd">
<svg version="1.0" xmlns="http://www.w3.org/2000/svg"
 width="225.000000pt" height="225.000000pt" viewBox="0 0 225.000000 225.000000"
 preserveAspectRatio="xMidYMid meet">
<metadata>
Created by potrace 1.15, written by Peter Selinger 2001-2017
</metadata>
<g transform="translate(0.000000,225.000000) scale(0.100000,-0.100000)"
fill="#000000" stroke="none">
<path d="M862 2240 c-159 -29 -251 -127 -283 -300 -6 -36 -12 -144 -13 -240
-1 -157 1 -183 22 -250 43 -136 127 -266 211 -324 37 -26 39 -30 43 -87 l3
-59 -35 -5 c-19 -3 -84 -14 -144 -25 -364 -68 -629 -261 -661 -482 l-7 -48
437 0 437 0 -6 22 c-17 61 -27 180 -21 243 18 196 85 345 219 483 71 74 124
113 220 162 66 34 70 39 88 90 28 83 36 190 28 365 -14 279 -67 380 -227 436
-68 23 -230 33 -311 19z"/>
<path d="M1460 1244 c-218 -57 -399 -240 -455 -459 -20 -77 -19 -230 1 -309
61 -236 248 -412 494 -462 205 -41 407 22 560 176 154 153 217 355 176 560
-50 246 -226 433 -462 494 -77 20 -239 20 -314 0z m228 -401 l3 -143 139 0
140 0 0 -70 0 -70 -140 0 -140 0 0 -140 0 -140 -70 0 -70 0 0 140 0 139 -142
3 -143 3 -3 67 -3 67 143 3 143 3 3 143 3 143 67 -3 67 -3 3 -142z"/>
</g>
</svg>
