<?xml version="1.0" standalone="no"?>
<!DOCTYPE svg PUBLIC "-//W3C//DTD SVG 20010904//EN"
 "http://www.w3.org/TR/2001/REC-SVG-20010904/DTD/svg10.dtd">
<svg version="1.0" xmlns="http://www.w3.org/2000/svg"
 width="554.000000pt" height="554.000000pt" viewBox="0 0 554.000000 554.000000"
 preserveAspectRatio="xMidYMid meet">
<metadata>
Created by potrace 1.15, written by Peter Selinger 2001-2017
</metadata>
<g transform="translate(0.000000,554.000000) scale(0.100000,-0.100000)"
fill="#000000" stroke="none">
<path d="M2500 5530 c-287 -28 -528 -85 -803 -190 -168 -64 -506 -255 -593
-336 -40 -37 -44 -44 -44 -89 0 -45 12 -68 192 -359 273 -444 287 -465 319
-481 54 -28 88 -20 199 51 118 77 249 141 365 179 293 99 634 111 925 34 679
-180 1161 -762 1209 -1458 56 -817 -496 -1535 -1309 -1702 -164 -34 -443 -34
-608 -1 -217 44 -397 117 -582 235 -111 72 -145 81 -199 52 -32 -16 -45 -36
-321 -483 l-192 -313 5 -52 c4 -46 9 -56 46 -87 118 -100 455 -282 656 -356
550 -200 1130 -227 1685 -78 704 190 1313 659 1684 1298 169 289 285 625 341
986 25 160 30 473 11 660 -38 355 -123 649 -277 960 -133 268 -283 481 -489
694 -436 451 -997 735 -1627 822 -133 18 -465 26 -593 14z"/>
<path d="M2083 3869 c-36 -11 -82 -61 -85 -92 -4 -62 10 -89 153 -304 83 -124
153 -231 156 -239 4 -12 -136 -14 -964 -16 l-968 -3 -76 -36 c-98 -47 -170
-119 -217 -218 -31 -64 -37 -88 -40 -163 -3 -54 1 -107 8 -136 37 -135 125
-242 249 -301 l76 -36 968 -3 c828 -2 968 -4 964 -16 -3 -8 -74 -117 -157
-241 -136 -203 -152 -232 -152 -271 -1 -48 18 -85 59 -111 25 -17 65 -18 499
-18 459 0 473 1 501 20 15 12 182 251 371 533 306 459 342 516 342 552 0 36
-36 93 -342 552 -189 282 -356 521 -371 533 -28 19 -43 20 -485 22 -261 1
-471 -2 -489 -8z"/>
</g>
</svg>
