<?xml version="1.0" standalone="no"?>
<!DOCTYPE svg PUBLIC "-//W3C//DTD SVG 20010904//EN"
 "http://www.w3.org/TR/2001/REC-SVG-20010904/DTD/svg10.dtd">
<svg version="1.0" xmlns="http://www.w3.org/2000/svg"
 width="554.000000pt" height="554.000000pt" viewBox="0 0 554.000000 554.000000"
 preserveAspectRatio="xMidYMid meet">
<metadata>
Created by potrace 1.15, written by Peter Selinger 2001-2017
</metadata>
<g transform="translate(0.000000,554.000000) scale(0.100000,-0.100000)"
fill="#000000" stroke="none">
<path d="M1655 5529 c-224 -16 -420 -46 -620 -94 -447 -107 -769 -296 -880
-516 -58 -113 -55 -37 -55 -1624 0 -900 4 -1483 10 -1520 37 -226 263 -430
625 -563 237 -87 460 -137 785 -174 127 -14 607 -18 785 -5 l111 7 39 -92
c134 -313 368 -574 666 -745 475 -272 1084 -266 1552 15 389 233 642 591 738
1044 29 133 31 413 6 553 -63 343 -218 631 -468 870 -280 267 -672 425 -1056
425 l-82 0 -3 843 c-3 791 -4 845 -22 892 -60 162 -206 306 -425 419 -394 202
-1087 310 -1706 265z m750 -444 c318 -39 576 -110 780 -214 102 -52 195 -133
195 -171 0 -77 -178 -193 -424 -275 -569 -190 -1456 -187 -2021 6 -236 81
-405 192 -405 267 0 19 16 42 58 82 149 142 545 269 967 310 61 5 128 12 150
14 96 9 578 -4 700 -19z m-1610 -1055 c524 -181 1259 -223 1896 -109 217 38
455 110 617 184 l72 34 0 -216 0 -217 -48 -45 c-310 -296 -1326 -427 -2097
-270 -299 61 -539 158 -652 264 l-53 51 0 216 0 217 73 -34 c39 -18 126 -52
192 -75z m-196 -887 c81 -38 286 -109 398 -137 292 -74 582 -107 948 -108 344
-1 597 24 883 88 138 30 383 110 472 153 35 17 67 31 72 31 4 0 8 -33 8 -73
l0 -74 -42 -12 c-77 -23 -274 -130 -368 -200 -103 -77 -240 -207 -305 -291
-48 -62 -42 -60 -285 -92 -132 -18 -744 -17 -870 0 -422 59 -718 151 -892 279
-87 64 -88 65 -88 277 0 102 3 186 7 186 3 0 31 -12 62 -27z m3546 -492 c296
-75 551 -262 703 -514 91 -151 149 -343 159 -527 30 -566 -374 -1066 -941
-1165 -602 -104 -1191 320 -1291 930 -58 354 57 716 309 969 171 172 367 276
608 322 105 20 348 12 453 -15z m-3338 -504 c203 -71 480 -126 767 -152 187
-17 543 -20 700 -5 60 6 111 9 113 6 2 -2 -2 -33 -11 -68 -31 -132 -37 -177
-43 -320 l-6 -146 -115 -7 c-168 -11 -607 1 -742 20 -386 53 -690 151 -857
276 -81 61 -83 67 -83 302 l0 205 89 -39 c49 -21 133 -53 188 -72z"/>
<path d="M3700 2367 l0 -83 -62 -14 c-151 -33 -281 -129 -336 -248 -24 -51
-27 -69 -27 -162 1 -92 4 -112 27 -161 48 -105 145 -175 293 -214 33 -9 126
-25 208 -35 276 -38 366 -102 305 -219 -17 -33 -36 -51 -73 -70 -47 -24 -59
-26 -186 -26 l-136 0 -79 40 c-63 32 -85 50 -111 87 -17 26 -33 52 -35 58 -5
16 -284 -106 -280 -122 8 -33 57 -119 93 -160 22 -26 70 -67 107 -92 65 -43
198 -96 240 -96 48 0 52 -7 52 -101 l0 -89 155 0 155 0 0 94 0 93 63 14 c149
31 288 134 345 256 24 52 27 70 27 168 0 140 -18 194 -88 272 -84 92 -221 146
-437 173 -275 35 -330 59 -330 144 0 37 5 48 34 74 50 44 98 57 211 57 85 -1
109 -5 162 -26 68 -29 115 -62 134 -96 7 -13 16 -23 20 -23 4 0 65 27 134 60
l127 59 -28 52 c-64 116 -158 190 -296 230 l-78 23 0 83 0 83 -155 0 -155 0 0
-83z"/>
</g>
</svg>
